<?xml version="1.0" encoding="utf-8"?>
<?xml-stylesheet type="text/xsl" href="rss1.xsl"?>
<rss version="2.0" xmlns:atom="http://www.w3.org/2005/Atom" xmlns:content="http://purl.org/rss/1.0/modules/content/" xmlns:dc="http://purl.org/dc/elements/1.1/" xmlns:media="http://search.yahoo.com/mrss/">
<channel>
 <title>Getty</title>
 <link>http://www.gettyimg.com/</link>
 <atom:link href="http://www.gettyimg.com/" rel="self" type="application/rss+xml" />

 
                <item>
                <title><![CDATA[【Cinema Center】SERIES - Transformers: Cyberverse - Season 3 - 1080p Netflix WEB-DL DDP5.1 x264-LAZY]]></title>
                <link><![CDATA[https://sharemania.us/threads/transformers-cyberverse-season-3-1080p-netflix-web-dl-ddp5-1-x264-lazy.240254/]]></link>
                <description><![CDATA[<article>
<blockquote class="messageText SelectQuoteContainer ugc baseHtml">
Transformers: Cyberverse:<img src="https://artworks.thetvdb.com/banners/v4/series/352228/banners/65ce658364f5d.jpg" class="bbCodeImage LbImage" alt="[​IMG]" data-url="https://artworks.thetvdb.com/banners/v4/series/352228/banners/65ce658364f5d.jpg" style=""> <br>
<br>
<div class="bbCodeBlock bbCodeQuote">
<aside>
<blockquote class="quoteContainer"><div class="quote"><i><b>Synopsis:</b></i><br>
When Bumblebee can't remember what his current mission on Earth is, Windblade repairs his memory chips, enabling him to rediscover his past adventures on Cybertron. When his memories are being repaired, Bumblebee gets a clue that will lead both him and Windblade to complete their mission and save their friends, unaware that Megatron sent his Decepticon assassins to hunt them down.</div><div class="quoteExpand">Click to expand...</div></blockquote>
</aside>
</div>
<div class="ToggleTriggerAnchor bbCodeSpoilerContainer">
<button type="button" class="button bbCodeSpoilerButton ToggleTrigger Tooltip JsOnly" data-target="> .SpoilerTarget"><span>Spoiler: <span class="SpoilerTitle">MediaInfo</span></span></button>
<div class="SpoilerTarget bbCodeSpoilerText">General<br>
Unique ID : 201765565853993339351468665298045719629 (0x97CAA26EC08E747086CEDD13198D544D)<br>
Complete name : Transformers.Cyberverse.S03E01.1080p.NF.WEB-DL.DDP5.1.x264-LAZY.mkv<br>
Format : Matroska<br>
Format version : Version 4<br>
File size : 269 MiB<br>
Duration : 10 min 47 s<br>
Overall bit rate mode : Variable<br>
Overall bit rate : 3 480 kb/s<br>
Encoded date : UTC 2024-03-18 15:23:11<br>
Writing application : mkvmerge v83.0 ('Circle Of Friends') 64-bit<br>
Writing library : libebml v1.4.5 + libmatroska v1.7.1<br>
<br>
Video<br>
ID : 1<br>
Format : AVC<br>
Format/Info : Advanced Video Codec<br>
Format profile : Main@L4<br>
Format settings : CABAC / 3 Ref Frames<br>
Format settings, CABAC : Yes<br>
Format settings, Reference frames : 3 frames<br>
Codec ID : V_MPEG4/ISO/AVC<br>
Duration : 10 min 47 s<br>
Bit rate mode : Variable<br>
Bit rate : 2 840 kb/s<br>
Nominal bit rate : 3 160 kb/s<br>
Maximum bit rate : 4 740 kb/s<br>
Width : 1 920 pixels<br>
Height : 1 080 pixels<br>
Display aspect ratio : 16:9<br>
Frame rate mode : Constant<br>
Frame rate : 23.976 (24000/1001) FPS<br>
Color space : YUV<br>
Chroma subsampling : 4:2:0<br>
Bit depth : 8 bits<br>
Scan type : Progressive<br>
Bits/(Pixel*Frame) : 0.057<br>
Stream size : 219 MiB (82%)<br>
Writing library : x264 core 148 r2727 7d026e8<br>
Encoding settings : cabac=1 / ref=3 / deblock=1:0:0 / analyse=0x1:0x111 / me=umh / subme=10 / psy=1 / psy_rd=1.00:0.00 / mixed_ref=1 / me_range=24 / chroma_me=1 / trellis=2 / 8x8dct=0 / cqm=0 / deadzone=21,11 / fast_pskip=1 / chroma_qp_offset=-2 / threads=8 / lookahead_threads=1 / sliced_threads=0 / nr=0 / decimate=1 / interlaced=0 / bluray_compat=0 / stitchable=1 / constrained_intra=0 / bframes=2 / b_pyramid=0 / b_adapt=2 / b_bias=0 / direct=3 / weightb=1 / open_gop=0 / weightp=2 / keyint=250 / keyint_min=23 / scenecut=0 / intra_refresh=0 / rc_lookahead=48 / rc=2pass / mbtree=1 / bitrate=3160 / ratetol=1.0 / qcomp=0.50 / qpmin=6 / qpmax=51 / qpstep=4 / cplxblur=20.0 / qblur=0.5 / vbv_maxrate=4740 / vbv_bufsize=6320 / nal_hrd=vbr / filler=0 / ip_ratio=1.40 / aq=1:1.00<br>
Default : Yes<br>
Forced : No<br>
<br>
Audio<br>
ID : 2<br>
Format : E-AC-3<br>
Format/Info : Enhanced AC-3<br>
Commercial name : Dolby Digital Plus<br>
Codec ID : A_EAC3<br>
Duration : 10 min 47 s<br>
Bit rate mode : Constant<br>
Bit rate : 640 kb/s<br>
Channel(s) : 6 channels<br>
Channel layout : L R C LFE Ls Rs<br>
Sampling rate : 48.0 kHz<br>
Frame rate : 31.250 FPS (1536 SPF)<br>
Compression mode : Lossy<br>
Stream size : 49.4 MiB (18%)<br>
Language : English<br>
Service kind : Complete Main<br>
Default : Yes<br>
Forced : No<br>
<br>
Text<br>
ID : 3<br>
Format : UTF-8<br>
Codec ID : S_TEXT/UTF8<br>
Codec ID/Info : UTF-8 Plain Text<br>
Duration : 10 min 40 s<br>
Bit rate : 63 b/s<br>
Count of elements : 170<br>
Stream size : 4.95 KiB (0%)<br>
Title : SDH<br>
Language : English<br>
Default : No<br>
Forced : No<br>
<br>
Menu<br>
00:00:00.000 : en<img src="styles/default/xenforo/smilies/grimace-48.png" class="mceSmilie" alt=":p" title="Stick Out Tongue    :p">art 01<br>
00:00:43.500 : en:Intro<br>
00:01:02.250 : en<img src="styles/default/xenforo/smilies/grimace-48.png" class="mceSmilie" alt=":p" title="Stick Out Tongue    :p">art 02<br>
00:10:30.450 : en:Credits</div>
</div><br>
Screenshots:<br>
<img src="https://ptpimg.me/b3okx1.jpg" class="bbCodeImage LbImage" alt="[​IMG]" data-url="https://ptpimg.me/b3okx1.jpg" style=""> <br>
<br>
<div class="bbCodeBlock bbCodeVfcHH HiddenContent">
<div class="attribution type">Hidden Content:</div>
<blockquote>You must either reply or click 'Like' to see the hidden information contained here.</blockquote>
</div>
<div class="messageTextEndMarker">&nbsp;</div>
</blockquote>
</article>]]></description>
                <author><![CDATA[LazyRips]]></author>
                </item>

                
                <item>
                <title><![CDATA[【SD Live Performances】The Jacksons - Victory Tour (Toronto 1984) (Interlaced Source)]]></title>
                <link><![CDATA[https://sharemania.us/threads/the-jacksons-victory-tour-toronto-1984-interlaced-source.240253/]]></link>
                <description><![CDATA[<article>
<blockquote class="messageText SelectQuoteContainer ugc baseHtml">
<b>(BETTER SOURCE: <b>NO SKIPS, </b>INTERLACED, LESS COMPRESSION)</b><br>
<br>
<img src="https://cdn.discordapp.com/attachments/1134475070153183322/1219307810844573747/VictoryTour_Toronto1984.mpg_thumbs.png?ex=660ad3e3&amp;is=65f85ee3&amp;hm=21675fb54c4afb58de65cb87ff400a85ab6d308c886a85428bac7e4aee4a68f5&amp;=" class="bbCodeImage LbImage" alt="[​IMG]" data-url="https://cdn.discordapp.com/attachments/1134475070153183322/1219307810844573747/VictoryTour_Toronto1984.mpg_thumbs.png?ex=660ad3e3&amp;is=65f85ee3&amp;hm=21675fb54c4afb58de65cb87ff400a85ab6d308c886a85428bac7e4aee4a68f5&amp;=" style=""><br>
<br>
<div class="bbCodeBlock bbCodeCode">
<div class="type">Code:</div>
<pre>Format                         : MPEG-PS
File size                      : 3.97 GiB
Duration                       : 1 h 54 min
Overall bit rate mode          : Variable
Overall bit rate               : 4 982 kb/s
Frame rate                     : 29.970 FPS

Video
Format                         : MPEG Video
Format version                 : Version 2
Format profile                 : Main@Main
Duration                       : 1 h 54 min
Bit rate mode                  : Variable
Bit rate                       : 4 626 kb/s
Maximum bit rate               : 9 496 kb/s
Width                          : 720 pixels
Height                         : 480 pixels
Display aspect ratio           : 4:3
Standard                       : NTSC
Color space                    : YUV
Chroma subsampling             : 4:2:0
Bit depth                      : 8 bits
Scan type                      : Interlaced
Scan order                     : Top Field First
Compression mode               : Lossy
</pre>
</div><br>
<b>CREDITS: <a href="https://www.youtube.com/@Wardell_ione" target="_blank" class="externalLink" rel="nofollow">https://www.youtube.com/@Wardell_ione</a> (FOR FINDING THIS SOURCE)</b><br>
<br>
<div class="bbCodeBlock bbCodeVfcHH HiddenContent">
<div class="attribution type">Hidden Content:</div>
<blockquote>You must reply before you can see the hidden data contained here.</blockquote>
</div>
<div class="messageTextEndMarker">&nbsp;</div>
</blockquote>
</article>]]></description>
                <author><![CDATA[yoeymeme]]></author>
                </item>

                </channel></rss>